<svg width="65" height="44" viewBox="0 0 65 44" fill="none" xmlns="http://www.w3.org/2000/svg">
<path d="M4.51376 0.000715221H8.70567H13.2194V4.51447V22.0166H8.70567V4.51447H4.51376V38.9338H13.2194V43.4783H4.51376H0V38.9338V4.51447V0.000715221H4.51376ZM25.4719 0.000715221H29.9856V34.2991V38.9338V43.4783H25.4719H21.28H16.7662V38.9338V0H21.28V38.9338H25.4719V34.2991V0.000715221ZM48.2338 17.8555V38.9345V43.479H38.0769H33.5324V4.51519V0.00143044H38.0769H41.1803H44.4853H45.7248V17.8562H47.3469H48.2338V17.8555ZM38.0769 4.51519V17.8555H41.1803V4.51519H38.0769ZM44.2135 38.9345V22.3693H38.0769V38.9345H44.2135ZM51.7806 4.51519V0.00143044H65V4.51519H51.7806ZM51.7806 9.97662V9.0597H65V10.1783V13.6042V38.9352V43.4797H60.4862H56.2943H51.7806V38.9352V13.6042V9.97662ZM56.2943 13.6042V38.9352H60.4862V13.6042H56.2943Z" fill="#919191"/>
</svg>
