<svg width="105" height="98" viewBox="0 0 105 98" fill="none" xmlns="http://www.w3.org/2000/svg">
<path fill-rule="evenodd" clip-rule="evenodd" d="M90.7814 80.6142C91.5706 79.526 93.9202 72.1613 94.3365 70.6466C94.7651 69.0906 94.8333 68.5773 94.8829 67.4268C94.6802 67.9333 90.6297 80.1042 90.7814 80.6142ZM89.8705 72.9737C89.9646 72.7413 90.2873 71.9816 90.2972 71.9586C90.3407 71.8427 90.4771 71.4596 90.5251 71.325C91.8863 67.4913 92.1279 63.6105 94.4437 61.7513C97.3373 62.5081 95.3174 62.7204 94.8838 67.4276L95.9292 64.0285C95.9595 63.9014 95.9932 63.7703 96.0244 63.644C96.0584 63.5087 96.0964 63.3611 96.1276 63.2348C96.7792 60.6787 96.5519 64.8103 96.4943 65.1909C96.4799 65.2822 96.4519 65.4181 96.4376 65.5094L96.2045 67.1153C95.8725 68.774 95.1691 70.2888 94.6947 72.1905C94.2426 74.0032 92.61 81.7125 90.3987 82.5289C90.3188 82.5575 90.1399 82.6409 90.0426 82.6726C88.3776 83.2219 87.761 83.2466 85.7501 81.6188C80.8009 77.6095 82.6525 78.3449 76.3339 74.4013C74.6468 73.3473 71.9396 72.2883 71.7028 70.0942C72.2023 69.6049 72.4839 68.2745 75.231 69.5295C78.4145 70.9841 82.9104 74.2597 85.7264 76.3163C87.6831 71.6364 79.2558 54.4018 77.1531 51.109C66.557 34.5111 47.7243 26.6387 26.7213 27.8957C19.7207 28.3143 13.0141 29.4161 5.94348 32.3631C3.18558 33.5138 3.54612 33.3266 2.578 32.808C1.92099 32.4561 0.253778 31.3808 0.0337475 30.9947C2.47271 27.6946 17.7012 25.0789 20.8934 24.6841C54.0842 20.5818 83.1476 37.9114 89.0997 69.7451C89.291 70.7683 89.4079 72.1172 89.8725 72.9732L89.8705 72.9737Z" fill="#919191" fill-opacity="0.38"/>
</svg>
