<svg width="77" height="80" viewBox="0 0 77 80" fill="none" xmlns="http://www.w3.org/2000/svg">
<path fill-rule="evenodd" clip-rule="evenodd" d="M9.35975 70.1701C8.82382 69.5549 7.34879 64.7918 7.09362 63.7987C6.83077 62.7788 6.79669 62.4276 6.79463 61.6199C6.92563 61.9393 9.48377 69.7773 9.35975 70.1701ZM10.2383 64.5577C10.1774 64.4114 9.96745 63.9361 9.961 63.9217C9.93308 63.8481 9.84615 63.6032 9.81553 63.5172C8.94835 61.0654 8.88798 58.3557 7.27642 57.4984C5.17272 58.6161 6.6196 58.3622 6.79393 61.6207L6.14124 59.4145C6.12315 59.3302 6.10278 59.2438 6.08399 59.1603C6.0635 59.0709 6.04048 58.9737 6.02169 58.8901C5.62766 57.2041 5.67047 60.0948 5.7008 60.3538C5.70845 60.4158 5.72461 60.5068 5.73227 60.5687L5.85302 61.6633C6.0434 62.7756 6.50513 63.7112 6.7908 64.9677C7.06308 66.1653 8.01223 71.3171 9.5791 71.4542C9.63572 71.4585 9.76202 71.4819 9.83104 71.485C11.0128 71.5418 11.4556 71.4358 12.9498 69.876C16.6271 66.035 15.2737 66.9286 19.9343 62.86C21.1787 61.7729 23.1571 60.4779 23.3916 58.8711C23.0465 58.6235 22.8828 57.7344 20.87 59.1768C18.5374 60.8483 15.2075 64.077 13.1217 66.1029C11.8508 63.169 18.4168 49.2322 20.0255 46.4708C28.133 32.5519 41.9106 23.1838 56.9826 19.8688C62.0063 18.7636 66.7986 18.2029 71.7988 18.8806C73.7491 19.1458 73.4953 19.085 74.2068 18.5224C74.6898 18.1407 75.9205 17.0425 76.0901 16.724C74.432 14.8673 63.5536 16.0597 61.2688 16.4187C37.5124 20.1536 16.099 38.2926 10.8871 62.1087C10.7196 62.8742 10.596 63.8563 10.2368 64.5578L10.2383 64.5577Z" fill="#919191" fill-opacity="0.38"/>
</svg>
