<svg width="60" height="15" viewBox="0 0 60 15" fill="none" xmlns="http://www.w3.org/2000/svg">
<path fill-rule="evenodd" clip-rule="evenodd" d="M4.14516 9.25479C6.47279 5.59111 13.3896 -0.276316 17.9664 3.58672C19.0118 4.46932 19.7837 5.03593 20.889 6.22083C22.5886 8.04351 26.0525 11.5181 28.0482 12.7437C29.1107 13.3966 32.2636 14.3354 33.712 14.57C36.9585 15.096 40 14.3246 42.9811 13.1338C48.7306 10.8342 53.1578 7.05221 58.433 4.48951C61.0311 2.87919 59.2885 1.96732 57.5293 2.8801C48.2807 7.53442 40.93 14.2209 32.4003 11.015C26.2646 8.70896 22.1291 -2.56672 10.9848 0.901032C-0.43119 4.45258 -2.91507 20.3682 4.14658 9.25442L4.14516 9.25479Z" fill="#919191" fill-opacity="0.38"/>
</svg>
