<svg xmlns="http://www.w3.org/2000/svg" viewBox="0 0 283.05 248.59"><defs><style>.cls-1{fill:#5b9ad3;}</style></defs><g id="Layer_2" data-name="Layer 2"><g id="Layer_1-2" data-name="Layer 1"><path class="cls-1" d="M280.42,229.14,152.76,8C146.58-2.67,136.47-2.67,130.3,8L2.63,229.14c-6.17,10.69-1.12,19.45,11.24,19.45l7.41-.06c66.13,0,113.29-12.21,113.29-87.73h13.7c0,75.52,47.16,87.73,113.29,87.73l7.63.06C281.54,248.59,286.59,239.83,280.42,229.14ZM62.74,192.76l-1.51,2.78-1.52-2.78-2.78-1.52,2.78-1.52,1.52-2.78,1.51,2.78,2.78,1.52Zm8.11-22.51-5.76-1.7-5.77,1.69L61,164.47l-1.68-5.77,5.76,1.69,5.77-1.69-1.68,5.77Zm14-30-3-.89-3,.89.9-3-.9-3,3,.89,3-.89-.89,3Zm7.71-34.35-1.87-3.43-3.43-1.88,3.43-1.88,1.87-3.43,1.89,3.43,3.43,1.88-3.43,1.88Zm14,64.42L105,173.07l-1.51-2.77-2.78-1.53,2.78-1.52,1.51-2.78,1.53,2.78,2.77,1.52Zm73,0L178,173.07l-1.51-2.77-2.79-1.53,2.79-1.52,1.51-2.78,1.53,2.78,2.78,1.52Zm-18.26-26c-1.8,3.16-5.91,9.27-6.11,9.47a5.3,5.3,0,0,1-3.74,1.55H131.16a5.31,5.31,0,0,1-4.31-2.25c-1.87-2.65-3.72-5.62-5.53-8.77-6,1.53-23.4,3.09-23.4,3.09s1.76-26.56,10.51-36.46c-2-9.7-2.48-19.71-.47-29.2,3.81-18,16.18-31.55,29.61-45a5.28,5.28,0,0,1,7.47,0c12.89,12.88,25.81,27,29.6,45,2,9.49,1.54,19.49-.46,29.21,8.76,9.89,10.52,36.44,10.52,36.44S167.27,145.83,161.29,144.29Zm31-41.84-1.87,3.43-1.88-3.43-3.43-1.88,3.43-1.88,1.88-3.43,1.87,3.43,3.44,1.88Zm11.93,37.78-3-.89-3,.89.88-3-.88-3,3,.89,3-.89-.88,3Zm7.95,18.47,5.77,1.69,5.77-1.69-1.69,5.77,1.69,5.77L218,168.55l-5.77,1.7,1.69-5.78Zm11.16,34.06-1.53,2.78-1.52-2.78-2.78-1.52,2.78-1.52,1.52-2.78,1.53,2.78,2.77,1.52Z"/><path class="cls-1" d="M150.71,88a9.19,9.19,0,1,0-9.18,9.19A9.18,9.18,0,0,0,150.71,88Z"/></g></g></svg>